# xmcd
# 
# Track frame offsets:
#     182
#     12165
#     20527
#     32432
#     47870
#     62207
#     75865
#     92407
#     113097
#     137680
#     154612
#     168895
#     179530
#     188982
#     206607
#     224545
#     243765
#     257597
# 
# Disc length: 3613
# 
# Revision: 5
# Processed by: cddbd v1.5.2PL0 Copyright (c) Steve Scherf et al.
# Submitted via: fre:ac v1.0.27
# 
DISCID=e30e1b12
DTITLE=Lightnin' Hopkins - Texas Blues
DYEAR=1969
DGENRE=Jazz
TTITLE0=Mr. Charlie
TTITLE1=You're Too Fast
TTITLE2=Rock Me Mama
TTITLE3=Love me This Morning
TTITLE4=Ride in your New Automobile
TTITLE5=Breakfast Time
TTITLE6=Fishing Clothes
TTITLE7=Morning Blues
TTITLE8=Mr. Ditta's Grocery Store
TTITLE9=Cookings Done
TTITLE10=Mini Skirt
TTITLE11=Coffee House Blues
TTITLE12=Mary Lou
TTITLE13=Want to Come Home
TTITLE14=Devil is Watching You
TTITLE15=Coon is Hard to Catch
TTITLE16=War is Starting Again
TTITLE17=Got me a Louisiana Woman
EXTD=
EXTT0=
EXTT1=
EXTT2=
EXTT3=
EXTT4=
EXTT5=
EXTT6=
EXTT7=
EXTT8=
EXTT9=
EXTT10=
EXTT11=
EXTT12=
EXTT13=
EXTT14=
EXTT15=
EXTT16=
EXTT17=
PLAYORDER=
